<?xml version="1.0" encoding="utf-8"?>
<!-- Svg Vector Icons : http://www.onlinewebfonts.com/icon -->
<!DOCTYPE svg PUBLIC "-//W3C//DTD SVG 1.1//EN" "http://www.w3.org/Graphics/SVG/1.1/DTD/svg11.dtd">
<svg version="1.1" xmlns="http://www.w3.org/2000/svg" xmlns:xlink="http://www.w3.org/1999/xlink" x="0px" y="0px" viewBox="0 0 1000 1000" enable-background="new 0 0 1000 1000" xml:space="preserve">
<metadata> Svg Vector Icons : http://www.onlinewebfonts.com/icon </metadata>
<g><g><path d="M988.8,467.3C972.8,222.7,777.3,27.2,532.7,11.1V10H500h-32.7v1.1C222.7,27.2,27.2,222.7,11.1,467.3H10V500v32.7h1.1c16.1,244.6,211.6,440.1,456.2,456.2v1.2H500h32.7v-1.2c244.6-16.1,440.1-211.5,456.2-456.2h1.2V500v-32.7H988.8z M316.7,116.8c-31.6,41.9-57.8,94.5-76.8,154.5H142C184.6,204.9,245.1,151.1,316.7,116.8z M107.9,336.7h114.9c-8.8,41.3-14.3,85.1-16.1,130.7H76.6C80,421.3,90.9,377.4,107.9,336.7z M76.6,532.7h130.1c1.8,45.5,7.3,89.4,16.1,130.7H107.9C90.9,622.6,80,578.7,76.6,532.7z M142,728.7h97.8c19.1,60,45.3,112.6,76.9,154.5C245.1,848.9,184.6,795.2,142,728.7z M467.3,920.5c-67.2-18-125-90.1-160.1-191.8h160.1V920.5z M467.3,663.3H288.9c-9.2-40.7-15-84.7-16.9-130.7h195.3V663.3z M467.3,467.3H272c1.9-46,7.7-90,16.9-130.7h178.4V467.3z M467.3,271.3H307.3c35.1-101.7,92.9-173.9,160.1-191.8V271.3z M858,271.3h-97.7c-19.1-60-45.3-112.6-77-154.5C754.8,151.1,815.4,204.9,858,271.3z M532.7,79.6c67.1,17.9,125,90,160.1,191.8H532.7V79.6z M532.7,336.7H711c9.3,40.7,15,84.7,17,130.7H532.7V336.7z M532.7,532.7H728c-1.9,46-7.7,90-17,130.7H532.7V532.7z M532.7,920.5V728.7h160.1C657.6,830.4,599.8,902.5,532.7,920.5z M683.3,883.2c31.6-42,57.8-94.5,77-154.5H858C815.4,795.2,754.8,848.9,683.3,883.2z M892.1,663.3H777.3c8.8-41.3,14.3-85.1,16.1-130.7h130C920,578.7,909.1,622.6,892.1,663.3z M793.3,467.3c-1.8-45.5-7.3-89.4-16.1-130.7h114.9c17,40.7,27.8,84.7,31.3,130.7H793.3z"/></g><g></g><g></g><g></g><g></g><g></g><g></g><g></g><g></g><g></g><g></g><g></g><g></g><g></g><g></g><g></g></g>
</svg>